<?xml version="1.0" encoding="iso-8859-1"?>
<!-- Generator: Adobe Illustrator 19.0.0, SVG Export Plug-In . SVG Version: 6.00 Build 0)  -->
<svg version="1.1" id="Layer_1" xmlns="http://www.w3.org/2000/svg" xmlns:xlink="http://www.w3.org/1999/xlink" x="0px" y="0px"
	 viewBox="0 0 512 512" style="enable-background:new 0 0 512 512;" xml:space="preserve">
<g>
	<g>
		<path d="M217.872,299.574c-12.009,0-21.783,9.772-21.787,21.787c0,12.013,9.773,21.787,21.785,21.787h0.002
			c12.013,0,21.787-9.774,21.787-21.787S229.886,299.574,217.872,299.574z"/>
	</g>
</g>
<g>
	<g>
		<path d="M294.128,299.574c-12.009,0-21.783,9.772-21.787,21.787c0,12.013,9.773,21.787,21.785,21.787h0.002
			c12.013,0,21.787-9.774,21.787-21.787S306.141,299.574,294.128,299.574z"/>
	</g>
</g>
<g>
	<g>
		<path d="M441.191,332.255v32.681c21.024,0,38.128,17.104,38.128,38.128c0,33.037-26.878,59.915-59.915,59.915
			c-40.579,0-74.328-29.741-80.632-68.567c18.459-7.038,31.611-24.917,31.611-45.816c0-27.031,21.991-49.021,49.021-49.021
			c39.044,0,70.809-31.765,70.809-70.808c-0.001-62.113-24.513-119.138-69.02-160.572C377.727,27.731,319.061,5.447,256,5.447
			S134.273,27.731,90.807,68.194c-44.508,41.434-69.02,98.459-69.02,160.572c0,39.044,31.765,70.808,70.809,70.808
			c27.03,0,49.021,21.99,49.021,49.021c0,20.899,13.152,38.778,31.611,45.816c-6.304,38.826-40.054,68.567-80.632,68.567
			c-33.037,0-59.915-26.878-59.915-59.915c0-21.024,17.104-38.128,38.128-38.128v-32.681C31.765,332.255,0,364.02,0,403.064
			c0,51.057,41.538,92.596,92.596,92.596c57.524,0,105.257-42.685,113.211-98.043h22.857c-1.486,43.999-20.734,76.255-38.025,76.255
			v32.681c20.749,0,39.5-13.183,52.799-37.121c5.329-9.593,9.545-20.573,12.563-32.428c3.018,11.857,7.233,22.836,12.563,32.428
			c13.299,23.938,32.05,37.121,52.799,37.121v-32.681c-17.291,0-36.539-32.256-38.025-76.255h22.857
			c7.953,55.357,55.687,98.043,113.211,98.043c51.057,0,92.596-41.538,92.596-92.596C512,364.02,480.235,332.255,441.191,332.255z
			 M457.532,228.766c0,21.024-17.104,38.128-38.128,38.128c-18.379,0-35.356,6.105-49.021,16.385V108.936h-0.514
			c-1.67-17.602-7.352-34.05-16.109-48.428C416.626,92.033,457.531,154.09,457.532,228.766z M142.131,108.936h-0.514v174.343
			c-13.665-10.28-30.643-16.385-49.021-16.385c-21.024,0-38.128-17.104-38.128-38.128c0-74.677,40.904-136.734,103.773-168.257
			C149.483,74.886,143.802,91.334,142.131,108.936z M337.702,348.596c0,9.011-7.33,16.34-16.34,16.34H190.638
			c-9.01,0-16.34-7.329-16.34-16.34V119.83c0-45.051,36.652-81.702,81.702-81.702s81.702,36.652,81.702,81.702V348.596z"/>
	</g>
</g>
<g>
</g>
<g>
</g>
<g>
</g>
<g>
</g>
<g>
</g>
<g>
</g>
<g>
</g>
<g>
</g>
<g>
</g>
<g>
</g>
<g>
</g>
<g>
</g>
<g>
</g>
<g>
</g>
<g>
</g>
</svg>
